<?xml version="1.0" standalone="no"?>
<!DOCTYPE svg PUBLIC "-//W3C//DTD SVG 20010904//EN"
 "http://www.w3.org/TR/2001/REC-SVG-20010904/DTD/svg10.dtd">
<svg version="1.0" xmlns="http://www.w3.org/2000/svg"
 width="700.000000pt" height="700.000000pt" viewBox="0 0 700.000000 700.000000"
 preserveAspectRatio="xMidYMid meet">
 <style>g { fill: #000; } @media (prefers-color-scheme: dark) { g { fill: #fff; } }</style>
<g transform="translate(0.000000,700.000000) scale(0.100000,-0.100000)" stroke="none">
<path d="M3464 6960 c-29 -11 -56 -48 -148 -205 l-77 -130 -49 -3 -48 -2 -74
83 c-157 176 -181 197 -224 197 -62 0 -83 -31 -150 -219 -48 -134 -62 -165
-81 -172 -63 -24 -65 -23 -193 72 -190 141 -200 145 -260 114 -36 -18 -44 -44
-70 -220 -29 -198 -26 -189 -66 -208 -51 -25 -23 -34 -266 82 -103 49 -138 57
-169 40 -53 -28 -54 -32 -51 -193 1 -83 4 -171 6 -195 3 -39 0 -47 -29 -73
-18 -15 -39 -28 -46 -28 -8 0 -91 18 -185 42 -156 38 -174 40 -203 28 -20 -8
-39 -26 -49 -47 -16 -33 -15 -40 26 -206 23 -95 42 -179 42 -187 0 -8 -14 -30
-31 -48 -26 -29 -34 -32 -67 -28 -20 3 -101 8 -179 11 -159 7 -191 -1 -212
-53 -19 -45 -19 -43 103 -305 20 -42 36 -81 36 -85 0 -23 -40 -86 -56 -88 -11
-2 -37 -6 -59 -9 -280 -40 -285 -41 -315 -70 -54 -52 -45 -79 80 -249 93 -126
109 -153 103 -175 -14 -61 -19 -65 -114 -100 -249 -89 -255 -92 -272 -121 -19
-31 -22 -72 -7 -99 5 -10 68 -71 140 -136 128 -115 130 -118 130 -159 0 -53 1
-52 -172 -155 -151 -90 -182 -121 -173 -173 5 -34 65 -98 92 -98 7 0 13 -3 13
-8 0 -4 21 -18 48 -32 45 -24 125 -73 168 -103 14 -11 21 -28 22 -59 3 -44 2
-45 -90 -128 -165 -149 -188 -174 -188 -208 0 -67 22 -88 140 -130 30 -11 97
-35 149 -54 95 -34 101 -38 116 -101 5 -17 -19 -57 -104 -172 -113 -154 -123
-177 -100 -228 15 -33 54 -53 119 -62 30 -4 62 -8 70 -10 8 -1 40 -6 70 -10
147 -19 155 -22 173 -60 9 -20 17 -42 17 -49 0 -7 -19 -53 -43 -102 -107 -220
-111 -231 -98 -274 21 -72 61 -78 395 -55 32 2 43 -3 67 -29 16 -17 29 -38 29
-47 0 -9 -18 -88 -40 -177 -45 -180 -45 -183 -25 -221 22 -44 64 -57 133 -41
31 8 62 15 67 16 6 1 57 14 114 28 57 14 111 26 119 26 8 0 29 -13 46 -28 26
-23 32 -35 31 -63 -21 -355 -18 -377 48 -398 45 -15 56 -13 182 48 207 99 200
96 245 76 42 -19 45 -24 55 -96 3 -25 7 -57 9 -70 2 -13 10 -62 16 -109 19
-130 46 -170 114 -170 25 0 105 52 243 157 l86 65 46 -15 c45 -14 46 -15 74
-93 60 -167 80 -220 94 -250 16 -35 49 -54 95 -54 34 0 62 25 217 198 72 79
76 82 118 82 l43 0 53 -82 c29 -46 68 -109 86 -141 19 -33 49 -74 68 -93 29
-29 39 -33 71 -29 41 5 83 45 118 111 10 21 42 75 71 121 28 46 53 89 55 95 2
6 26 13 54 15 l50 5 79 -88 c146 -164 179 -194 213 -194 17 0 42 5 56 11 31
15 41 35 128 278 25 71 38 95 56 102 62 24 65 23 173 -58 175 -131 199 -145
241 -140 68 9 79 31 103 207 29 210 32 218 86 240 34 15 43 11 231 -79 91 -44
135 -60 155 -57 16 2 31 5 34 5 3 1 17 10 30 22 23 20 24 26 23 147 -1 70 -4
157 -7 194 -5 65 -5 68 26 97 17 17 39 31 49 31 10 0 92 -19 183 -41 105 -26
174 -39 191 -35 34 9 74 53 74 83 0 13 -18 96 -40 184 -22 89 -40 168 -40 177
0 10 13 31 29 48 32 34 15 33 257 19 149 -8 182 1 204 54 18 44 15 54 -103
301 l-45 94 19 27 c10 15 19 32 19 38 0 9 15 13 90 26 8 2 69 11 135 20 135
19 177 35 194 71 25 56 20 66 -135 276 -57 78 -74 108 -69 125 16 65 17 66
171 121 82 30 163 60 180 68 35 17 54 50 54 96 0 34 -30 66 -198 217 -80 72
-82 75 -80 117 1 26 8 49 17 57 9 8 77 50 151 95 75 44 144 90 155 102 25 28
25 92 0 120 -16 18 -259 170 -271 170 -2 0 -14 9 -27 20 -17 15 -24 33 -26 64
-2 42 0 44 81 117 164 146 198 183 198 217 0 76 -18 89 -243 167 -114 40 -140
53 -148 72 -24 64 -25 64 90 219 114 153 124 175 100 227 -15 32 -54 53 -114
61 -27 3 -61 8 -75 10 -14 2 -45 7 -70 10 -25 4 -61 9 -80 12 -19 4 -42 7 -50
8 -19 3 -60 63 -60 87 0 9 11 39 25 66 79 156 125 268 121 292 -14 84 -39 94
-219 85 -78 -3 -159 -7 -181 -9 -32 -2 -43 3 -67 29 -16 17 -29 38 -29 47 0 9
18 90 41 180 47 187 46 219 -4 249 -18 11 -41 20 -51 20 -11 0 -90 -18 -177
-40 -87 -22 -166 -40 -176 -40 -10 1 -32 13 -49 28 -27 23 -31 33 -29 67 2 22
6 108 10 190 l7 150 -27 28 c-47 47 -77 45 -200 -13 -243 -115 -221 -109 -268
-82 -18 9 -33 18 -35 18 -3 1 -19 93 -28 159 -17 127 -35 208 -51 230 -19 26
-68 41 -102 30 -12 -3 -85 -54 -163 -111 -111 -83 -147 -104 -164 -100 -52 13
-73 26 -79 48 -12 40 -97 272 -112 304 -21 47 -87 69 -132 45 -9 -5 -70 -68
-135 -141 l-119 -131 -44 2 c-24 2 -49 9 -57 18 -7 9 -50 77 -95 152 -44 75
-89 144 -100 153 -22 20 -67 27 -97 16z m120 -642 c71 -36 107 -90 112 -169 6
-111 -83 -204 -196 -203 -65 1 -105 20 -148 68 -87 99 -50 259 72 310 45 19
115 16 160 -6z m-373 -497 c104 -104 190 -181 213 -191 45 -21 119 -19 163 3
15 8 108 94 205 191 194 193 172 180 268 156 301 -76 509 -159 734 -292 359
-213 674 -525 883 -876 l56 -93 -117 -229 c-95 -188 -116 -237 -116 -272 1
-55 29 -117 69 -151 26 -22 197 -112 413 -219 39 -19 43 -29 53 -148 6 -65 6
-336 0 -395 -8 -87 -16 -159 -20 -180 -3 -11 -7 -36 -9 -55 -38 -274 -177
-638 -348 -915 -59 -94 -198 -279 -263 -350 -48 -51 -55 -53 -130 -39 -119 23
-362 58 -405 58 -40 0 -67 -6 -97 -23 -70 -40 -94 -85 -113 -216 -7 -44 -14
-89 -16 -100 -2 -11 -12 -78 -23 -149 -11 -70 -22 -130 -25 -133 -6 -6 -188
-85 -201 -87 -5 -1 -14 -4 -20 -7 -56 -33 -381 -111 -558 -133 -173 -22 -446
-23 -606 -1 -14 2 -48 6 -76 10 -27 3 -57 8 -65 10 -8 3 -33 7 -55 11 -61 9
-215 51 -318 85 -83 28 -277 108 -277 114 0 1 -4 25 -9 52 -6 27 -12 70 -15
94 -3 24 -8 55 -10 69 -3 14 -14 83 -26 153 -11 71 -26 138 -33 150 -38 67
-128 114 -198 103 -19 -3 -56 -8 -84 -12 -27 -3 -124 -19 -215 -34 l-165 -28
-20 21 c-291 315 -494 690 -600 1107 -75 295 -93 570 -61 918 1 12 7 26 12 31
5 5 100 55 212 111 112 56 218 115 237 131 45 40 70 105 61 165 -4 30 -45 122
-117 264 l-112 219 56 94 c299 501 794 901 1354 1093 91 31 321 91 344 90 9
-1 94 -79 190 -175z m-2111 -1345 c61 -40 87 -103 82 -197 -3 -42 -57 -113
-105 -137 -131 -65 -286 29 -287 174 0 86 73 178 152 191 18 3 34 6 36 8 9 8
88 -16 122 -39z m5018 6 c34 -21 47 -37 73 -86 44 -83 4 -202 -86 -253 -57
-32 -149 -27 -203 10 -119 83 -112 269 13 335 64 33 146 31 203 -6z m-4059
-2956 c72 -50 103 -149 73 -229 -31 -83 -99 -129 -188 -129 -138 0 -232 142
-179 270 21 49 51 81 100 104 56 26 142 19 194 -16z m3081 12 c117 -60 145
-217 54 -311 -74 -76 -196 -80 -278 -8 -32 29 -59 93 -59 146 -2 144 153 238
283 173z"/>
</g>
</svg>
